<svg width="20" height="20" viewBox="0 0 20 20" fill="none" xmlns="http://www.w3.org/2000/svg">
  <mask id="mask0_274_9730" style="mask-type:alpha" maskUnits="userSpaceOnUse" x="0" y="0" width="20" height="20">
    <rect width="20" height="20" fill="#D9D9D9"/>
  </mask>
  <g mask="url(#mask0_274_9730)">
    <path fill-rule="evenodd" clip-rule="evenodd" d="M10 2.21244C8.28888 2.21244 6.90173 3.61126 6.90173 5.33679C6.90173 7.06232 8.28888 8.46114 10 8.46114C11.7111 8.46114 13.0983 7.06232 13.0983 5.33679C13.0983 3.61126 11.7111 2.21244 10 2.21244ZM5.69942 5.33679C5.69942 2.94165 7.62486 1 10 1C12.3751 1 14.3006 2.94165 14.3006 5.33679C14.3006 7.73193 12.3751 9.67357 10 9.67357C7.62486 9.67357 5.69942 7.73193 5.69942 5.33679ZM3.25961 13.4619C4.06612 12.6486 5.15999 12.1917 6.30058 12.1917H13.6994C14.84 12.1917 15.9339 12.6486 16.7404 13.4619C17.5469 14.2752 18 15.3783 18 16.5285V18.3938C18 18.7286 17.7309 19 17.3988 19C17.0668 19 16.7977 18.7286 16.7977 18.3938V16.5285C16.7977 15.6999 16.4713 14.9052 15.8902 14.3192C15.3092 13.7333 14.5211 13.4041 13.6994 13.4041H6.30058C5.47887 13.4041 4.69081 13.7333 4.10977 14.3192C3.52874 14.9052 3.20231 15.6999 3.20231 16.5285V18.3938C3.20231 18.7286 2.93317 19 2.60116 19C2.26915 19 2 18.7286 2 18.3938V16.5285C2 15.3783 2.4531 14.2752 3.25961 13.4619Z" fill="currentColor"/> 
  </g>
</svg>
