<svg width="24" height="24" viewBox="0 0 24 24" fill="none" xmlns="http://www.w3.org/2000/svg">
<mask id="mask0_482_3562" style="mask-type:alpha" maskUnits="userSpaceOnUse" x="0" y="0" width="24" height="24">
<rect width="24" height="24" fill="#D9D9D9"/>
</mask>
<g mask="url(#mask0_482_3562)">
<path d="M11.3333 12.6667H4.66667C4.47778 12.6667 4.31944 12.6027 4.19167 12.4747C4.06389 12.3468 4 12.1883 4 11.9991C4 11.8099 4.06389 11.6517 4.19167 11.5244C4.31944 11.397 4.47778 11.3333 4.66667 11.3333H11.3333V4.66667C11.3333 4.47778 11.3973 4.31944 11.5253 4.19167C11.6532 4.06389 11.8117 4 12.0009 4C12.1901 4 12.3483 4.06389 12.4756 4.19167C12.603 4.31944 12.6667 4.47778 12.6667 4.66667V11.3333H19.3333C19.5222 11.3333 19.6806 11.3973 19.8083 11.5253C19.9361 11.6532 20 11.8117 20 12.0009C20 12.1901 19.9361 12.3483 19.8083 12.4756C19.6806 12.603 19.5222 12.6667 19.3333 12.6667H12.6667V19.3333C12.6667 19.5222 12.6027 19.6806 12.4747 19.8083C12.3468 19.9361 12.1883 20 11.9991 20C11.8099 20 11.6517 19.9361 11.5244 19.8083C11.397 19.6806 11.3333 19.5222 11.3333 19.3333V12.6667Z" fill="white"/>
</g>
</svg>
