<svg width="24" height="24" viewBox="0 0 24 24" fill="none" xmlns="http://www.w3.org/2000/svg">
<mask id="mask0_137_11207" style="mask-type:alpha" maskUnits="userSpaceOnUse" x="4" y="4" width="16" height="16">
<rect x="4" y="4" width="16" height="16" fill="#D9D9D9"/>
</mask>
<g mask="url(#mask0_137_11207)">
<path d="M8.98473 17.8487C8.88644 17.7504 8.8373 17.6323 8.8373 17.4942C8.8373 17.3562 8.88644 17.238 8.98473 17.1398L14.1245 12L8.96806 6.84358C8.87233 6.74786 8.82446 6.63462 8.82446 6.50385C8.82446 6.37307 8.87789 6.25427 8.98473 6.14743C9.08302 6.04914 9.20118 6 9.33921 6C9.47725 6 9.59541 6.04914 9.6937 6.14743L15.1655 11.6231C15.2236 11.6812 15.2644 11.7406 15.2879 11.8013C15.3114 11.862 15.3232 11.9282 15.3232 12C15.3232 12.0718 15.3114 12.138 15.2879 12.1987C15.2644 12.2594 15.2236 12.3188 15.1655 12.3769L9.67703 17.8654C9.58131 17.9611 9.4687 18.009 9.33921 18.009C9.20972 18.009 9.09156 17.9556 8.98473 17.8487Z" fill="currentColor"/>
</g>
</svg>
