<svg width="24" height="24" viewBox="0 0 24 24" fill="none" xmlns="http://www.w3.org/2000/svg">
<mask id="mask0_275_9865" style="mask-type:alpha" maskUnits="userSpaceOnUse" x="0" y="0" width="24" height="24">
<rect width="24" height="24" fill="#D9D9D9"/>
</mask>
<g mask="url(#mask0_275_9865)">
<path d="M7.04616 14.3483C6.93974 14.2419 6.88654 14.124 6.88654 13.9945C6.88654 13.865 6.93974 13.747 7.04616 13.6406L11.4346 9.25218C11.5218 9.16499 11.6109 9.10378 11.7019 9.06853C11.793 9.03326 11.8923 9.01562 12 9.01562C12.1077 9.01562 12.2071 9.03326 12.2981 9.06853C12.3891 9.10378 12.4782 9.16499 12.5654 9.25218L16.9789 13.6656C17.0724 13.7592 17.1192 13.8688 17.1192 13.9945C17.1192 14.1201 17.0641 14.2381 16.9539 14.3483C16.8474 14.4547 16.7295 14.508 16.6 14.508C16.4705 14.508 16.3526 14.4547 16.2462 14.3483L12 10.1022L7.72886 14.3733C7.63528 14.4669 7.52566 14.5137 7.40001 14.5137C7.27436 14.5137 7.15641 14.4586 7.04616 14.3483Z" fill="currentColor"/>
</g>
</svg>
