<svg width="24" height="24" viewBox="0 0 24 24" fill="none" xmlns="http://www.w3.org/2000/svg">
<mask id="mask0_299_5643" style="mask-type:alpha" maskUnits="userSpaceOnUse" x="0" y="0" width="24" height="24">
<rect width="24" height="24" fill="#D9D9D9"/>
</mask>
<g mask="url(#mask0_299_5643)">
<path d="M12 14.3732C11.9051 14.3732 11.809 14.3556 11.7116 14.3203C11.6141 14.285 11.5218 14.2238 11.4346 14.1367L7.04038 9.74241C6.93398 9.63601 6.88174 9.51902 6.88366 9.39146C6.88557 9.26389 6.93974 9.1469 7.04616 9.04048C7.15257 8.93408 7.27052 8.88088 7.40001 8.88088C7.52949 8.88088 7.64744 8.93408 7.75386 9.04048L12 13.2866L16.2519 9.03473C16.3583 8.92831 16.4753 8.87606 16.6029 8.87798C16.7304 8.87991 16.8474 8.93408 16.9539 9.04048C17.0603 9.1469 17.1135 9.26485 17.1135 9.39433C17.1135 9.52383 17.0603 9.64178 16.9539 9.74818L12.5654 14.1367C12.4782 14.2238 12.3891 14.285 12.2981 14.3203C12.2071 14.3556 12.1077 14.3732 12 14.3732Z" fill="currentColor"/>
</g>
</svg>
