<svg width="24" height="24" viewBox="0 0 24 24" fill="none" xmlns="http://www.w3.org/2000/svg">
<mask id="mask0_137_11193" style="mask-type:alpha" maskUnits="userSpaceOnUse" x="4" y="4" width="16" height="16">
<rect x="4" y="4" width="16" height="16" fill="#D9D9D9"/>
</mask>
<g mask="url(#mask0_137_11193)">
<path d="M14.314 17.8489L8.83836 12.3771C8.78024 12.319 8.73943 12.2596 8.71591 12.1989C8.69241 12.1382 8.68066 12.072 8.68066 12.0002C8.68066 11.9284 8.69241 11.8622 8.71591 11.8015C8.73943 11.7408 8.78024 11.6814 8.83836 11.6233L14.3268 6.13481C14.4225 6.03908 14.5358 5.99121 14.6666 5.99121C14.7973 5.99121 14.9161 6.04463 15.023 6.15148C15.1213 6.24977 15.1704 6.36729 15.1704 6.50404C15.1704 6.6408 15.1213 6.75832 15.023 6.85661L9.87938 12.0002L15.0358 17.1566C15.1315 17.2523 15.1794 17.3649 15.1794 17.4944C15.1794 17.6239 15.126 17.7421 15.0191 17.8489C14.9208 17.9472 14.8033 17.9963 14.6666 17.9963C14.5298 17.9963 14.4123 17.9472 14.314 17.8489Z" fill="currentColor"/>
</g>
</svg>
