<svg width="24" height="24" viewBox="0 0 24 24" fill="none" xmlns="http://www.w3.org/2000/svg">
<mask id="mask0_137_11191" style="mask-type:alpha" maskUnits="userSpaceOnUse" x="4" y="4" width="16" height="16">
<rect x="4" y="4" width="16" height="16" fill="#D9D9D9"/>
</mask>
<g mask="url(#mask0_137_11191)">
<path d="M17.314 17.8489L11.8384 12.3771C11.7802 12.319 11.7394 12.2596 11.7159 12.1989C11.6924 12.1382 11.6807 12.072 11.6807 12.0002C11.6807 11.9284 11.6924 11.8622 11.7159 11.8015C11.7394 11.7408 11.7802 11.6814 11.8384 11.6233L17.3268 6.13481C17.4225 6.03908 17.5358 5.99121 17.6666 5.99121C17.7973 5.99121 17.9161 6.04463 18.023 6.15148C18.1213 6.24977 18.1704 6.36729 18.1704 6.50404C18.1704 6.6408 18.1213 6.75832 18.023 6.85661L12.8794 12.0002L18.0358 17.1566C18.1315 17.2523 18.1794 17.3649 18.1794 17.4944C18.1794 17.6239 18.126 17.7421 18.0191 17.8489C17.9208 17.9472 17.8033 17.9963 17.6666 17.9963C17.5298 17.9963 17.4123 17.9472 17.314 17.8489Z" fill="currentColor"/>
<path d="M11.314 17.8489L5.83836 12.3771C5.78024 12.319 5.73943 12.2596 5.71591 12.1989C5.69241 12.1382 5.68066 12.072 5.68066 12.0002C5.68066 11.9284 5.69241 11.8622 5.71591 11.8015C5.73943 11.7408 5.78024 11.6814 5.83836 11.6233L11.3268 6.13481C11.4225 6.03908 11.5358 5.99121 11.6666 5.99121C11.7973 5.99121 11.9161 6.04463 12.023 6.15148C12.1213 6.24977 12.1704 6.36729 12.1704 6.50404C12.1704 6.6408 12.1213 6.75832 12.023 6.85661L6.87938 12.0002L12.0358 17.1566C12.1315 17.2523 12.1794 17.3649 12.1794 17.4944C12.1794 17.6239 12.126 17.7421 12.0191 17.8489C11.9208 17.9472 11.8033 17.9963 11.6666 17.9963C11.5298 17.9963 11.4123 17.9472 11.314 17.8489Z" fill="currentColor"/>
</g>
</svg>
