<svg width="24" height="24" viewBox="0 0 24 24" fill="none" xmlns="http://www.w3.org/2000/svg">
<mask id="mask0_137_11209" style="mask-type:alpha" maskUnits="userSpaceOnUse" x="4" y="4" width="16" height="16">
<rect x="4" y="4" width="16" height="16" fill="#D9D9D9"/>
</mask>
<g mask="url(#mask0_137_11209)">
<path d="M5.98449 17.8487C5.8862 17.7504 5.83705 17.6323 5.83705 17.4942C5.83705 17.3562 5.8862 17.238 5.98449 17.1398L11.1242 12L5.96782 6.84358C5.87209 6.74786 5.82422 6.63462 5.82422 6.50385C5.82422 6.37307 5.87764 6.25427 5.98449 6.14743C6.08277 6.04914 6.20094 6 6.33897 6C6.477 6 6.59516 6.04914 6.69345 6.14743L12.1653 11.6231C12.2234 11.6812 12.2642 11.7406 12.2877 11.8013C12.3112 11.862 12.323 11.9282 12.323 12C12.323 12.0718 12.3112 12.138 12.2877 12.1987C12.2642 12.2594 12.2234 12.3188 12.1653 12.3769L6.67679 17.8654C6.58106 17.9611 6.46846 18.009 6.33897 18.009C6.20948 18.009 6.09132 17.9556 5.98449 17.8487Z" fill="currentColor"/>
<path d="M11.9845 17.8487C11.8862 17.7504 11.8371 17.6323 11.8371 17.4942C11.8371 17.3562 11.8862 17.238 11.9845 17.1398L17.1242 12L11.9678 6.84358C11.8721 6.74786 11.8242 6.63462 11.8242 6.50385C11.8242 6.37307 11.8776 6.25427 11.9845 6.14743C12.0828 6.04914 12.2009 6 12.339 6C12.477 6 12.5952 6.04914 12.6935 6.14743L18.1653 11.6231C18.2234 11.6812 18.2642 11.7406 18.2877 11.8013C18.3112 11.862 18.323 11.9282 18.323 12C18.323 12.0718 18.3112 12.138 18.2877 12.1987C18.2642 12.2594 18.2234 12.3188 18.1653 12.3769L12.6768 17.8654C12.5811 17.9611 12.4685 18.009 12.339 18.009C12.2095 18.009 12.0913 17.9556 11.9845 17.8487Z" fill="currentColor"/>
</g>
</svg>
