<svg width="24" height="24" viewBox="0 0 24 24" fill="none" xmlns="http://www.w3.org/2000/svg">
<path fill-rule="evenodd" clip-rule="evenodd" d="M6.6 3.99997C5.71634 3.99997 5 4.71631 5 5.59997V15.4409C5 16.3245 5.71635 17.0409 6.6 17.0409H7.95358V18.4012C7.95358 19.2848 8.66993 20.0012 9.55358 20.0012H17.3993C18.283 20.0012 18.9993 19.2848 18.9993 18.4012V8.5603C18.9993 7.67664 18.283 6.9603 17.3993 6.9603H16.0457V5.59997C16.0457 4.71631 15.3294 3.99997 14.4457 3.99997H6.6ZM16.0457 8.1603V15.4409C16.0457 16.3245 15.3294 17.0409 14.4457 17.0409H9.15358V18.4012C9.15358 18.6221 9.33267 18.8012 9.55358 18.8012H17.3993C17.6202 18.8012 17.7993 18.6221 17.7993 18.4012V8.5603C17.7993 8.33938 17.6202 8.1603 17.3993 8.1603H16.0457ZM6.2 5.59997C6.2 5.37906 6.37909 5.19997 6.6 5.19997H14.4457C14.6667 5.19997 14.8457 5.37906 14.8457 5.59997V15.4409C14.8457 15.6618 14.6667 15.8409 14.4457 15.8409H6.6C6.37909 15.8409 6.2 15.6618 6.2 15.4409V5.59997Z" fill="#999FA5"/>
</svg>
