<svg width="20" height="20" viewBox="0 0 20 20" fill="none" xmlns="http://www.w3.org/2000/svg">
<path fill-rule="evenodd" clip-rule="evenodd" d="M11.7282 4.00526C12.0227 3.65287 12.4583 3.44922 12.9175 3.44922H16C16.8561 3.44922 17.55 4.14318 17.55 4.99922V8.45375C17.55 8.45542 17.55 8.45709 17.55 8.45875V14.9992C17.55 15.8553 16.856 16.5492 16 16.5492H4C3.14396 16.5492 2.45 15.8553 2.45 14.9992V6.99922C2.45 6.14318 3.14396 5.44922 4 5.44922H10.3111C10.4444 5.44922 10.5709 5.39009 10.6564 5.28779L11.7282 4.00526ZM17 9.00376C17.1474 9.00376 17.2833 8.94501 17.3832 8.8483C17.2842 8.94452 17.149 9.00376 17 9.00376ZM12.9175 4.54922C12.7842 4.54922 12.6577 4.60834 12.5722 4.71065L11.5004 5.99317C11.2059 6.34557 10.7703 6.54922 10.3111 6.54922H4C3.75147 6.54922 3.55 6.75069 3.55 6.99922V14.9992C3.55 15.2477 3.75147 15.4492 4 15.4492H16C16.2485 15.4492 16.45 15.2477 16.45 14.9992V8.45378C16.45 8.45212 16.45 8.45046 16.45 8.44881V4.99922C16.45 4.75069 16.2485 4.54922 16 4.54922H12.9175Z" fill="currentColor"/>
<path fill-rule="evenodd" clip-rule="evenodd" d="M9.01728 9.05508C9.09393 9.12852 9.09393 9.2476 9.01728 9.32104L7.47382 10.8L9.01728 12.279C9.09393 12.3524 9.09393 12.4715 9.01728 12.5449C8.94064 12.6184 8.81637 12.6184 8.73973 12.5449L7.05748 10.933C6.98084 10.8595 6.98084 10.7405 7.05748 10.667L8.73973 9.05508C8.81637 8.98164 8.94064 8.98164 9.01728 9.05508ZM10.9827 9.05508C11.0594 8.98164 11.1836 8.98164 11.2603 9.05508L12.9425 10.667C13.0192 10.7405 13.0192 10.8595 12.9425 10.933L11.2603 12.5449C11.1836 12.6184 11.0594 12.6184 10.9827 12.5449C10.9061 12.4715 10.9061 12.3524 10.9827 12.279L12.5262 10.8L10.9827 9.32104C10.9061 9.2476 10.9061 9.12852 10.9827 9.05508Z" fill="currentColor"/>
<path fill-rule="evenodd" clip-rule="evenodd" d="M8.53217 8.83769C8.72485 8.65306 9.03216 8.65306 9.22484 8.83769C9.42474 9.02924 9.42474 9.34532 9.22484 9.53687L7.90743 10.7992L9.22484 12.0616C9.42474 12.2531 9.42474 12.5692 9.22484 12.7607C9.03216 12.9454 8.72485 12.9454 8.53217 12.7607L6.84992 11.1488C6.65002 10.9573 6.65002 10.6412 6.84992 10.4496L8.53217 8.83769ZM10.7752 8.83769C10.9678 8.65306 11.2751 8.65306 11.4678 8.83769L13.1501 10.4496C13.35 10.6412 13.35 10.9573 13.1501 11.1488L11.4678 12.7607C11.2751 12.9454 10.9678 12.9454 10.7752 12.7607C10.5753 12.5692 10.5753 12.2531 10.7752 12.0616L12.0926 10.7992L10.7752 9.53687C10.5753 9.34532 10.5753 9.02924 10.7752 8.83769Z" fill="currentColor"/>
</svg>
