<svg width="25" height="24" viewBox="0 0 25 24" fill="none" xmlns="http://www.w3.org/2000/svg">
<path d="M22.5 12L23.1318 12.4041L23.3903 12L23.1318 11.5959L22.5 12ZM2.5 12L1.86818 11.5959L1.60972 12L1.86818 12.4041L2.5 12ZM22.5 12C21.8682 11.5959 21.8683 11.5957 21.8683 11.5956C21.8684 11.5956 21.8684 11.5955 21.8684 11.5955C21.8684 11.5955 21.8684 11.5956 21.8683 11.5958C21.868 11.5962 21.8675 11.597 21.8667 11.5982C21.8651 11.6006 21.8625 11.6047 21.8588 11.6103C21.8514 11.6216 21.8398 11.6393 21.8241 11.6629C21.7927 11.7102 21.7448 11.7811 21.6812 11.8724C21.5542 12.055 21.3649 12.3184 21.1202 12.6358C20.6299 13.2717 19.9217 14.1176 19.0497 14.9609C17.2759 16.6762 14.9589 18.25 12.5 18.25V19.75C15.564 19.75 18.2469 17.8238 20.0924 16.0391C21.0301 15.1324 21.7864 14.2283 22.3081 13.5517C22.5694 13.2128 22.7731 12.9294 22.9124 12.7292C22.9821 12.6291 23.0358 12.5496 23.0726 12.4943C23.091 12.4666 23.1053 12.445 23.1152 12.4298C23.1201 12.4223 23.124 12.4163 23.1268 12.412C23.1281 12.4098 23.1293 12.4081 23.1301 12.4068C23.1305 12.4061 23.1309 12.4056 23.1312 12.4051C23.1313 12.4049 23.1315 12.4046 23.1315 12.4045C23.1317 12.4043 23.1318 12.4041 22.5 12ZM12.5 18.25C10.0411 18.25 7.7241 16.6762 5.9503 14.9609C5.07828 14.1176 4.37013 13.2717 3.87978 12.6358C3.63509 12.3184 3.44584 12.055 3.31876 11.8724C3.25524 11.7811 3.20734 11.7102 3.17589 11.6629C3.16017 11.6393 3.14856 11.6216 3.14118 11.6103C3.13749 11.6047 3.13485 11.6006 3.13329 11.5982C3.13251 11.597 3.13199 11.5962 3.13175 11.5958C3.13162 11.5956 3.13157 11.5955 3.13158 11.5955C3.13159 11.5955 3.13165 11.5956 3.13165 11.5956C3.13173 11.5957 3.13182 11.5959 2.5 12C1.86818 12.4041 1.86831 12.4043 1.86845 12.4045C1.86852 12.4046 1.86869 12.4049 1.86883 12.4051C1.86911 12.4056 1.86947 12.4061 1.86989 12.4068C1.87073 12.4081 1.87185 12.4098 1.87324 12.412C1.87602 12.4163 1.8799 12.4223 1.88485 12.4298C1.89474 12.445 1.90895 12.4666 1.92737 12.4943C1.9642 12.5496 2.01787 12.6291 2.08757 12.7292C2.22691 12.9294 2.43059 13.2128 2.69192 13.5517C3.21363 14.2283 3.96994 15.1324 4.90756 16.0391C6.75305 17.8238 9.43603 19.75 12.5 19.75V18.25ZM2.5 12C3.13182 12.4041 3.13173 12.4043 3.13165 12.4044C3.13165 12.4044 3.13159 12.4045 3.13158 12.4045C3.13157 12.4045 3.13162 12.4044 3.13175 12.4042C3.13199 12.4038 3.13251 12.403 3.13329 12.4018C3.13485 12.3994 3.13749 12.3953 3.14118 12.3897C3.14856 12.3784 3.16017 12.3607 3.17589 12.3371C3.20734 12.2898 3.25524 12.2189 3.31876 12.1276C3.44584 11.945 3.63509 11.6816 3.87978 11.3642C4.37013 10.7283 5.07828 9.88242 5.9503 9.03914C7.7241 7.32381 10.0411 5.75 12.5 5.75V4.25C9.43603 4.25 6.75305 6.17619 4.90756 7.96086C3.96994 8.86758 3.21363 9.77169 2.69192 10.4483C2.43059 10.7872 2.22691 11.0706 2.08757 11.2708C2.01787 11.3709 1.9642 11.4504 1.92737 11.5057C1.90895 11.5334 1.89474 11.555 1.88485 11.5702C1.8799 11.5777 1.87602 11.5837 1.87324 11.588C1.87185 11.5902 1.87073 11.5919 1.86989 11.5932C1.86947 11.5939 1.86911 11.5944 1.86883 11.5949C1.86869 11.5951 1.86852 11.5954 1.86845 11.5955C1.86831 11.5957 1.86818 11.5959 2.5 12ZM12.5 5.75C14.9589 5.75 17.2759 7.32381 19.0497 9.03914C19.9217 9.88242 20.6299 10.7283 21.1202 11.3642C21.3649 11.6816 21.5542 11.945 21.6812 12.1276C21.7448 12.2189 21.7927 12.2898 21.8241 12.3371C21.8398 12.3607 21.8514 12.3784 21.8588 12.3897C21.8625 12.3953 21.8651 12.3994 21.8667 12.4018C21.8675 12.403 21.868 12.4038 21.8683 12.4042C21.8684 12.4044 21.8684 12.4045 21.8684 12.4045C21.8684 12.4045 21.8684 12.4044 21.8683 12.4044C21.8683 12.4043 21.8682 12.4041 22.5 12C23.1318 11.5959 23.1317 11.5957 23.1315 11.5955C23.1315 11.5954 23.1313 11.5951 23.1312 11.5949C23.1309 11.5944 23.1305 11.5939 23.1301 11.5932C23.1293 11.5919 23.1281 11.5902 23.1268 11.588C23.124 11.5837 23.1201 11.5777 23.1152 11.5702C23.1053 11.555 23.091 11.5334 23.0726 11.5057C23.0358 11.4504 22.9821 11.3709 22.9124 11.2708C22.7731 11.0706 22.5694 10.7872 22.3081 10.4483C21.7864 9.77169 21.0301 8.86758 20.0924 7.96086C18.2469 6.17619 15.564 4.25 12.5 4.25V5.75Z" fill="#999FA5"/>
<circle cx="12.5" cy="12" r="4" stroke="#999FA5" stroke-width="1.5"/>
</svg>
