<svg width="24" height="24" viewBox="0 0 24 24" fill="none" xmlns="http://www.w3.org/2000/svg">
<path fill-rule="evenodd" clip-rule="evenodd" d="M3.53045 3.11615C3.23756 2.82326 2.76269 2.82326 2.46979 3.11615C2.1769 3.40905 2.1769 3.88392 2.46979 4.17681L5.37707 7.0841C5.03293 7.37414 4.70915 7.66942 4.40771 7.96093C3.47009 8.86765 2.71377 9.77176 2.19206 10.4483C1.93073 10.7873 1.72706 11.0707 1.58772 11.2709C1.51802 11.371 1.46434 11.4505 1.42752 11.5058C1.4091 11.5334 1.39489 11.5551 1.38499 11.5702L1.37339 11.5881L1.37004 11.5933L1.36898 11.5949C1.36883 11.5952 1.36833 11.596 2.00015 12.0001L1.36833 11.596L1.10986 12.0001L1.36833 12.4042L1.36898 12.4052L1.37004 12.4068L1.37339 12.412L1.38499 12.4299C1.39489 12.4451 1.4091 12.4667 1.42752 12.4944C1.46434 12.5497 1.51802 12.6291 1.58772 12.7293C1.72706 12.9295 1.93073 13.2129 2.19206 13.5518C2.71377 14.2284 3.47009 15.1325 4.40771 16.0392C6.2532 17.8239 8.93618 19.7501 12.0001 19.7501C13.6866 19.7501 15.2577 19.1665 16.6372 18.3442L19.4404 21.1474C19.7332 21.4403 20.2081 21.4403 20.501 21.1474C20.7939 20.8545 20.7939 20.3796 20.501 20.0867L17.9041 17.4898C17.9088 17.4862 17.9136 17.4826 17.9184 17.479L16.8463 16.4069C16.8415 16.4104 16.8366 16.414 16.8318 16.4175L15.5596 15.1454C15.5636 15.1409 15.5675 15.1365 15.5714 15.132L14.5074 14.068C14.5037 14.0726 14.4999 14.0772 14.496 14.0817L9.91844 9.50415C9.92301 9.50034 9.92758 9.49654 9.93217 9.49275L8.86819 8.42878C8.86374 8.43269 8.85928 8.43661 8.85484 8.44054L7.657 7.2427C7.66203 7.23936 7.66707 7.23603 7.67212 7.2327L6.59188 6.15247C6.58693 6.15589 6.58198 6.15931 6.57704 6.16274L3.53045 3.11615ZM6.44194 8.14897C6.09589 8.43597 5.76465 8.73537 5.45045 9.03921C4.57843 9.88249 3.87028 10.7284 3.37993 11.3643C3.18743 11.6139 3.02925 11.8302 2.90866 12.0001C3.02925 12.1699 3.18743 12.3862 3.37993 12.6358C3.87028 13.2718 4.57843 14.1177 5.45045 14.9609C7.22425 16.6763 9.54127 18.2501 12.0001 18.2501C13.2319 18.2501 14.4281 17.8551 15.5382 17.2453L14.3956 16.1027C13.6924 16.5142 12.8738 16.7501 12.0001 16.7501C9.37677 16.7501 7.25012 14.6234 7.25012 12.0001C7.25012 11.1264 7.48599 10.3078 7.89753 9.60455L6.44194 8.14897ZM9.01224 10.7193C8.84354 11.1123 8.75012 11.5453 8.75012 12.0001C8.75012 13.795 10.2052 15.2501 12.0001 15.2501C12.4549 15.2501 12.8879 15.1566 13.2809 14.988L9.01224 10.7193ZM2.00015 12.0001C1.36833 12.4042 1.36818 12.404 1.36833 12.4042L2.00015 12.0001ZM17.6382 15.7845C17.9554 15.518 18.2599 15.2413 18.5498 14.9609C19.4219 14.1177 20.13 13.2718 20.6204 12.6358C20.8129 12.3862 20.971 12.1699 21.0916 12.0001C20.971 11.8302 20.8129 11.6139 20.6204 11.3643C20.13 10.7284 19.4219 9.88249 18.5498 9.03921C16.776 7.32388 14.459 5.75007 12.0001 5.75007C10.8034 5.75007 9.64025 6.12288 8.55699 6.70336L7.45522 5.60159C8.81239 4.80803 10.3511 4.25007 12.0001 4.25007C15.0641 4.25007 17.7471 6.17626 19.5926 7.96093C20.5302 8.86765 21.2865 9.77176 21.8082 10.4483C22.0696 10.7873 22.2732 11.0707 22.4126 11.2709C22.4823 11.371 22.536 11.4505 22.5728 11.5058C22.5912 11.5334 22.6054 11.5551 22.6153 11.5702L22.6269 11.5881L22.6303 11.5933L22.6317 11.5955L22.0001 12.0001C22.632 12.4042 22.6315 12.405 22.6313 12.4052L22.6303 12.4068L22.6269 12.412L22.6153 12.4299C22.6054 12.4451 22.5912 12.4667 22.5728 12.4944C22.536 12.5497 22.4823 12.6291 22.4126 12.7293C22.2732 12.9295 22.0696 13.2129 21.8082 13.5518C21.2865 14.2284 20.5302 15.1325 19.5926 16.0392C19.3144 16.3082 19.0172 16.5805 18.7025 16.8488L17.6382 15.7845ZM22.0001 12.0001L22.632 12.4042L22.8904 12.0001L22.6317 11.5955C22.6318 11.5958 22.632 11.596 22.0001 12.0001ZM15.0305 13.1769C15.1723 12.812 15.2501 12.4151 15.2501 12.0001C15.2501 10.2051 13.795 8.75007 12.0001 8.75007C11.5851 8.75007 11.1882 8.82787 10.8233 8.96968L9.69791 7.84428C10.3799 7.46568 11.1648 7.25007 12.0001 7.25007C14.6235 7.25007 16.7501 9.37672 16.7501 12.0001C16.7501 12.8354 16.5345 13.6203 16.1559 14.3023L15.0305 13.1769Z" fill="#999FA5"/>
</svg>
