<svg width="20" height="21" viewBox="0 0 20 21" fill="none" xmlns="http://www.w3.org/2000/svg">
<path fill-rule="evenodd" clip-rule="evenodd" d="M6.30288 8.48228L3.60369 11.1815C2.16571 12.6194 2.31909 15.1043 3.94628 16.7314C5.57346 18.3586 8.05827 18.512 9.49624 17.074L12.1954 14.3748L11.265 13.4444L8.56584 16.1436C7.58196 17.1275 5.88183 17.0226 4.7685 15.9092C3.65516 14.7959 3.55021 13.0958 4.53409 12.1119L7.23328 9.41268L6.30288 8.48228ZM12.1489 12.5605L15.1436 9.56588C16.1275 8.582 16.0225 6.88188 14.9092 5.76854C13.7958 4.6552 12.0957 4.55026 11.1118 5.53413L8.11716 8.5288L7.18676 7.5984L10.1814 4.60373C11.6194 3.16575 14.1042 3.31914 15.7314 4.94632C17.3586 6.57351 17.512 9.05831 16.074 10.4963L13.0793 13.491L12.1489 12.5605Z" fill="#1E49D7"/>
<path fill-rule="evenodd" clip-rule="evenodd" d="M7.04011 13.6384C6.79604 13.3943 6.79604 12.9986 7.04011 12.7545L11.7542 8.04048C11.9982 7.7964 12.394 7.7964 12.638 8.04048C12.8821 8.28456 12.8821 8.68029 12.638 8.92436L7.924 13.6384C7.67992 13.8825 7.28419 13.8825 7.04011 13.6384Z" fill="#1E49D7"/>
</svg>
