<svg width="20" height="20" viewBox="0 0 20 20" fill="none" xmlns="http://www.w3.org/2000/svg">
<path fill-rule="evenodd" clip-rule="evenodd" d="M7.50001 2.20833C7.33892 2.20833 7.20834 2.33892 7.20834 2.5V4.16667C7.20834 4.32775 7.33892 4.45833 7.50001 4.45833H12.5C12.6611 4.45833 12.7917 4.32775 12.7917 4.16667V2.5C12.7917 2.33892 12.6611 2.20833 12.5 2.20833H7.50001ZM13.875 2.79167V2.5C13.875 1.74061 13.2594 1.125 12.5 1.125H7.50001C6.74061 1.125 6.12501 1.74061 6.12501 2.5V2.79167H5.00001C4.41432 2.79167 3.85262 3.02433 3.43848 3.43847C3.02433 3.85262 2.79167 4.41431 2.79167 5V16.6667C2.79167 17.2524 3.02433 17.8141 3.43848 18.2282C3.85262 18.6423 4.41432 18.875 5.00001 18.875H15C15.5857 18.875 16.1474 18.6423 16.5615 18.2282C16.9757 17.8141 17.2083 17.2524 17.2083 16.6667V5C17.2083 4.41431 16.9757 3.85262 16.5615 3.43847C16.1474 3.02433 15.5857 2.79167 15 2.79167H13.875ZM13.875 3.875V4.16667C13.875 4.92606 13.2594 5.54167 12.5 5.54167H7.50001C6.74061 5.54167 6.12501 4.92606 6.12501 4.16667V3.875H5.00001C4.70164 3.875 4.41549 3.99353 4.20451 4.2045C3.99353 4.41548 3.87501 4.70163 3.87501 5V16.6667C3.87501 16.965 3.99353 17.2512 4.20451 17.4622C4.41549 17.6731 4.70164 17.7917 5.00001 17.7917H15C15.2984 17.7917 15.5845 17.6731 15.7955 17.4622C16.0065 17.2512 16.125 16.965 16.125 16.6667V5C16.125 4.70163 16.0065 4.41548 15.7955 4.2045C15.5845 3.99353 15.2984 3.875 15 3.875H13.875Z" fill="currentColor"/>
</svg>
