<svg width="24" height="24" viewBox="0 0 24 24" fill="none" xmlns="http://www.w3.org/2000/svg">
<mask id="mask0_380_3215" style="mask-type:alpha" maskUnits="userSpaceOnUse" x="0" y="0" width="24" height="24">
<rect width="24" height="24" fill="#D9D9D9"/>
</mask>
<g mask="url(#mask0_380_3215)">
<circle cx="12" cy="12" r="6" fill="white"/>
<path d="M12 16.7368C13.3144 16.7368 14.4325 16.276 15.3542 15.3542C16.276 14.4325 16.7368 13.3144 16.7368 12C16.7368 10.6856 16.276 9.56749 15.3542 8.64575C14.4325 7.72403 13.3144 7.26317 12 7.26317C10.6856 7.26317 9.56749 7.72403 8.64575 8.64575C7.72403 9.56749 7.26317 10.6856 7.26317 12C7.26317 13.3144 7.72403 14.4325 8.64575 15.3542C9.56749 16.276 10.6856 16.7368 12 16.7368ZM12.0018 22C10.6187 22 9.31863 21.7375 8.10165 21.2126C6.88464 20.6877 5.82603 19.9753 4.9258 19.0755C4.02555 18.1757 3.31285 17.1175 2.78771 15.9011C2.26257 14.6846 2 13.3849 2 12.0018C2 10.6187 2.26246 9.31863 2.78737 8.10165C3.31228 6.88464 4.02465 5.82603 4.92448 4.9258C5.82433 4.02555 6.88248 3.31286 8.09894 2.78771C9.31538 2.26257 10.6151 2 11.9982 2C13.3813 2 14.6814 2.26246 15.8984 2.78737C17.1154 3.31229 18.174 4.02465 19.0742 4.92448C19.9745 5.82433 20.6871 6.88248 21.2123 8.09894C21.7374 9.31538 22 10.6151 22 11.9982C22 13.3813 21.7375 14.6814 21.2126 15.8984C20.6877 17.1154 19.9753 18.174 19.0755 19.0742C18.1757 19.9745 17.1175 20.6871 15.9011 21.2123C14.6846 21.7374 13.3849 22 12.0018 22Z" fill="#1E49D7"/>
</g>
</svg>
 