<svg width="20" height="20" viewBox="0 0 20 20" fill="none" xmlns="http://www.w3.org/2000/svg">
<mask id="mask0_281_2571" style="mask-type:alpha" maskUnits="userSpaceOnUse" x="0" y="0" width="20" height="20">
<rect width="20" height="20" fill="#D9D9D9"/>
</mask>
<g mask="url(#mask0_281_2571)">
<path fill-rule="evenodd" clip-rule="evenodd" d="M17 1.25C17.4142 1.25 17.75 1.58579 17.75 2V18C17.75 18.4142 17.4142 18.75 17 18.75C16.5858 18.75 16.25 18.4142 16.25 18V2C16.25 1.58579 16.5858 1.25 17 1.25ZM10 7.25C10.4142 7.25 10.75 7.58579 10.75 8V18C10.75 18.4142 10.4142 18.75 10 18.75C9.58579 18.75 9.25 18.4142 9.25 18V8C9.25 7.58579 9.58579 7.25 10 7.25ZM3 13.25C3.41421 13.25 3.75 13.5858 3.75 14V18C3.75 18.4142 3.41421 18.75 3 18.75C2.58579 18.75 2.25 18.4142 2.25 18V14C2.25 13.5858 2.58579 13.25 3 13.25Z" fill="currentColor"/>
</g>
</svg>
