<svg width="20" height="20" viewBox="0 0 20 20" fill="none" xmlns="http://www.w3.org/2000/svg">
<mask id="mask0_281_2564" style="mask-type:alpha" maskUnits="userSpaceOnUse" x="0" y="0" width="20" height="20">
<rect width="20" height="20" fill="#D9D9D9"/>
</mask>
<g mask="url(#mask0_281_2564)">
<path fill-rule="evenodd" clip-rule="evenodd" d="M9.31071 3C8.43768 3 7.61677 3.16452 6.84989 3.49472C6.08626 3.82354 5.41757 4.27509 4.84534 4.84925C4.27323 5.42331 3.82287 6.09311 3.49436 6.85716C3.16443 7.62453 3 8.44455 3 9.31537C3 10.189 3.1644 11.0106 3.49436 11.778C3.82289 12.5421 4.2733 13.2112 4.84551 13.7839C5.41773 14.3565 6.08636 14.8072 6.84989 15.136C7.61677 15.4662 8.43768 15.6307 9.31071 15.6307C10.1074 15.6307 10.8619 15.4909 11.5726 15.2104C12.2264 14.9523 12.8204 14.6015 13.354 14.1581L16.0368 16.8386L16.0393 16.8411C16.1473 16.9449 16.2805 17 16.4303 17C16.5801 17 16.7133 16.9449 16.8213 16.8411L16.8239 16.8385C16.9268 16.7355 16.9892 16.6093 16.9988 16.4642C17.0091 16.3096 16.9512 16.1737 16.8431 16.0655L14.1456 13.366C14.5886 12.8321 14.9399 12.2378 15.199 11.5837C15.481 10.8722 15.6214 10.1156 15.6214 9.31537C15.6214 8.44455 15.457 7.62453 15.1271 6.85716C14.7985 6.093 14.3473 5.42315 13.7737 4.84908C13.2 4.27502 12.5307 3.82353 11.7671 3.49472C11.0003 3.16455 10.1809 3 9.31071 3ZM5.64755 5.65152C6.65815 4.63874 7.87572 4.13431 9.31071 4.13431C10.7426 4.13431 11.9596 4.63867 12.9718 5.65162C13.984 6.66456 14.4879 7.88238 14.4879 9.31537C14.4879 10.7514 13.9839 11.9699 12.9718 12.9812C11.9597 13.9927 10.7427 14.4964 9.31071 14.4964C7.87564 14.4964 6.65804 13.9927 5.64746 12.9813C4.63686 11.97 4.13348 10.7515 4.13348 9.31537C4.13348 7.88229 4.63679 6.66445 5.64755 5.65152Z" fill="currentColor"/>
</g>
</svg>
