<svg width="24" height="24" viewBox="0 0 24 24" fill="none" xmlns="http://www.w3.org/2000/svg">
<path d="M12 12.25C11.7451 12.25 11.5385 12.4566 11.5385 12.7115V17.0385C11.5385 17.2934 11.7451 17.5 12 17.5C12.2549 17.5 12.4615 17.2934 12.4615 17.0385V12.7115C12.4615 12.4566 12.2549 12.25 12 12.25Z" fill="black"/>
<path d="M14.0769 10.9615C14.0769 10.7066 14.2835 10.5 14.5384 10.5C14.7934 10.5 15 10.7066 15 10.9615V17.0385C15 17.2934 14.7934 17.5 14.5384 17.5C14.2835 17.5 14.0769 17.2934 14.0769 17.0385V10.9615Z" fill="black"/>
<path d="M9.46154 10.5C9.20664 10.5 9 10.7066 9 10.9615V17.0385C9 17.2934 9.20664 17.5 9.46154 17.5C9.71645 17.5 9.92309 17.2934 9.92309 17.0385V10.9615C9.92309 10.7066 9.71645 10.5 9.46154 10.5Z" fill="black"/>
<path fill-rule="evenodd" clip-rule="evenodd" d="M9 5.5V6.5H5.5C5.22386 6.5 5 6.72386 5 7C5 7.27614 5.22386 7.5 5.5 7.5H6V17.5C6 18.6046 6.82655 19.5 7.84615 19.5H16.1538C17.1734 19.5 18 18.6046 18 17.5V7.5H18.5C18.7761 7.5 19 7.27614 19 7C19 6.72386 18.7761 6.5 18.5 6.5H15V5.5C15 4.94772 14.5523 4.5 14 4.5H10C9.44772 4.5 9 4.94772 9 5.5ZM14 5.5H10V6.5H14V5.5ZM17.0769 7.5V17.5C17.0769 18.0523 16.6636 18.5 16.1538 18.5H7.84615C7.33635 18.5 6.92308 18.0523 6.92308 17.5V7.5H17.0769Z" fill="black"/>
</svg>
