<svg width="68" height="64" viewBox="0 0 68 64" fill="none" xmlns="http://www.w3.org/2000/svg">
<path d="M27.1896 4.08639C30.1559 -1.36212 37.8441 -1.36213 40.8104 4.08637L67.0109 52.2128C69.8909 57.5028 66.137 64 60.2006 64H7.79944C1.86302 64 -1.89087 57.5028 0.989083 52.2128L27.1896 4.08639Z" fill="#FFF2D8"/>
<path d="M36.5711 24.0371L36.0768 43.6853H31.2091L30.7147 24.0371H36.5711ZM33.681 52.4437C31.8936 52.4437 30.4485 50.971 30.4866 49.1884C30.4485 47.4057 31.8936 45.9718 33.681 45.9718C35.3542 45.9718 36.8373 47.4057 36.8373 49.1884C36.8373 50.971 35.3542 52.4437 33.681 52.4437Z" fill="#FFAB08"/>
</svg>
