<svg width="55" height="18" viewBox="0 0 55 18" fill="none" xmlns="http://www.w3.org/2000/svg">
<mask id="mask0_935_22982" style="mask-type:luminance" maskUnits="userSpaceOnUse" x="10" y="11" width="45" height="7">
<path fill-rule="evenodd" clip-rule="evenodd" d="M10.8203 11.3352H55.0004V17.9999H10.8203V11.3352Z" fill="white"/>
</mask>
<g mask="url(#mask0_935_22982)">
<path fill-rule="evenodd" clip-rule="evenodd" d="M16.003 12.6878V11.3352H10.8203V17.9999H16.003V16.657H12.3763V15.3152H15.9195V13.9818H12.3763V12.6878H16.003ZM21.3982 18H23.3426L20.742 14.6389L23.324 11.3353H21.4365L19.8433 13.4487L18.2619 11.3353H16.3187L18.9088 14.6676L16.3268 18H18.2155L19.8074 15.8579L21.3982 18ZM23.6847 11.3353V18H25.2395V15.7995H27.192C28.6077 15.7995 29.4865 14.8489 29.4865 13.5632C29.4865 12.2405 28.6262 11.3353 27.2477 11.3353H23.6847ZM27.9235 13.5727C27.9235 14.0212 27.6452 14.3909 27.0992 14.3909H25.2394V12.7546H27.0992C27.6452 12.7546 27.9235 13.1159 27.9235 13.5727ZM31.884 15.6003H32.6144L34.5495 18H36.4834L34.3269 15.543C35.4284 15.3343 36.0858 14.5149 36.0858 13.4487C36.0858 12.2023 35.2243 11.3353 33.8458 11.3353H30.3292V18H31.884V15.6003ZM33.7065 12.6973C34.2618 12.6973 34.5587 13.0683 34.5587 13.5262C34.5587 13.9819 34.2618 14.3432 33.7065 14.3432H31.8838V12.6973H33.7065ZM42.3873 12.6878V11.3352H37.2046V17.9999H42.3873V16.657H38.7594V15.3152H42.3039V13.9818H38.7594V12.6878H42.3873ZM46.654 16.6665H43.3322V18H46.6065C48.0047 18 48.8384 17.1233 48.8384 15.877C48.8384 14.6867 48.0883 13.9926 46.8291 13.9926H45.3299C44.96 13.9926 44.7015 13.7445 44.7015 13.3544C44.7015 12.9537 44.96 12.6878 45.3299 12.6878H48.1428L48.7178 11.3353H45.3763C43.9791 11.3353 43.1456 12.2119 43.1456 13.4105C43.1456 14.6389 43.9328 15.3438 45.1642 15.3438H46.654C47.0238 15.3438 47.2917 15.5907 47.2917 15.9915C47.2917 16.3993 47.0238 16.6665 46.654 16.6665ZM52.8166 16.6665H49.4948V18H52.7702C54.1685 18 55.001 17.1233 55.001 15.877C55.001 14.6867 54.252 13.9926 52.9929 13.9926H51.4937C51.1226 13.9926 50.8641 13.7445 50.8641 13.3544C50.8641 12.9537 51.1226 12.6878 51.4937 12.6878H54.3065L54.8816 11.3353H51.5401C50.1418 11.3353 49.3093 12.2119 49.3093 13.4105C49.3093 14.6389 50.0965 15.3438 51.3279 15.3438H52.8166C53.1864 15.3438 53.4554 15.5907 53.4554 15.9915C53.4554 16.3993 53.1864 16.6665 52.8166 16.6665Z" fill="#1769B2"/>
</g>
<path fill-rule="evenodd" clip-rule="evenodd" d="M5.84005 6.66346H7.58972L4.82212 0H2.77688L0 6.66346H1.65685L2.20294 5.23583H5.28468L5.84005 6.66346ZM3.26737 2.48437L3.73921 1.23684L4.21113 2.48437L4.78507 3.95965H2.70271L3.26737 2.48437ZM9.45884 2.11341L9.4218 0.313678L11.2166 6.66346H12.6241L14.419 0.351786L14.3819 2.10386V6.66346H15.8903V0H13.1517L11.9204 4.72182L10.6809 0H7.95042V6.66346H9.45884V2.11341ZM22.3505 1.35125V0H17.1679V6.66346H22.3505V5.30266H18.7226V3.97875H22.2671V2.64651H18.7226V1.35125H22.3505ZM25.0429 4.26501H25.7745L27.7085 6.66346H29.6425L27.4858 4.20772C28.5873 3.99784 29.2447 3.17848 29.2447 2.11341C29.2447 0.865879 28.3833 0 27.0047 0H23.4881V6.66346H25.0429V4.26501ZM26.8654 1.3608C27.4208 1.3608 27.7176 1.7329 27.7176 2.18971C27.7176 2.64652 27.4208 3.00793 26.8654 3.00793H25.0428V1.3608H26.8654ZM30.1329 6.66346H31.6878V3.73068V0H30.1329V3.69249V6.66346ZM35.6573 6.66346H35.7409L36.3785 5.24538H35.9078C34.8422 5.24538 34.2139 4.55959 34.2139 3.38004V3.28464C34.2139 2.2279 34.7774 1.43717 35.8892 1.43717H37.5728V0H35.7594C33.7605 0 32.6683 1.37989 32.6683 3.2751V3.38836C32.6683 5.36941 33.7884 6.65391 35.6573 6.66346ZM42.4405 6.66346H44.1901L41.4236 0H39.3772L36.6015 6.66346H38.2584L38.8044 5.23583H41.8863L42.4405 6.66346ZM39.8689 2.48437L40.3408 1.23684L40.8115 2.48437L41.3866 3.95965H39.3042L39.8689 2.48437ZM46.0681 2.67516L46.0496 2.12296L46.3743 2.67516L48.8531 6.66346H50.6676V0H49.1499V3.85471L49.1685 4.34971L48.8821 3.85471L46.4566 0H44.5516V6.66346H46.0681V2.67516Z" fill="#1769B2"/>
</svg>
