<svg width="55" height="15" viewBox="0 0 55 15" fill="none" xmlns="http://www.w3.org/2000/svg">
<path d="M10.4904 14.1606C14.3667 14.1803 17.9093 11.0008 17.9093 7.14413C17.9093 2.91456 14.3765 0 10.4904 0H7.15392C3.22861 0 0 2.91456 0 7.14413C0 11.0106 3.22861 14.1803 7.15392 14.1606H10.4904Z" fill="#006094"/>
<path fill-rule="evenodd" clip-rule="evenodd" d="M0.675781 7.07455C0.675781 3.49266 3.59033 0.587891 7.17222 0.587891C10.7639 0.597747 13.6686 3.49266 13.6686 7.07455C13.6686 10.6466 10.7639 13.5513 7.17222 13.5513C3.58054 13.5513 0.675781 10.6564 0.675781 7.07455ZM3.05062 7.05983C3.05267 5.31512 4.15117 3.82571 5.69037 3.2277V10.8919C4.15117 10.3037 3.05267 8.81426 3.05062 7.05983ZM3.05062 7.05983V7.06469V7.0549V7.05983ZM8.64422 3.2277C10.1849 3.8165 11.284 5.30815 11.284 7.06469C11.284 8.81151 10.1849 10.3031 8.64422 10.9017V3.2277Z" fill="white"/>
<path fill-rule="evenodd" clip-rule="evenodd" d="M45.5525 7.22196H45.4151V7.41825C45.6899 7.3986 45.9548 7.3986 46.2297 7.3986C46.3696 7.3986 46.5044 7.40372 46.6368 7.40871C46.7643 7.41351 46.8895 7.41825 47.0147 7.41825V7.22196H46.8871C46.6811 7.22196 46.5142 7.22196 46.5142 6.97665V1.8443C46.5142 1.78542 46.5044 1.73633 46.4553 1.73633C46.4259 1.73633 46.367 1.76577 46.2885 1.81486C46.1315 1.90318 45.8175 2.04052 45.5231 2.1387V2.25646L45.5404 2.26119C45.8121 2.33594 45.9156 2.36442 45.9156 2.8354V6.97665C45.9156 7.22196 45.7586 7.22196 45.5525 7.22196ZM45.1502 3.56161H45.1495L45.0716 2.51156C44.5025 2.31534 43.9235 2.11905 43.3151 2.11905C41.8529 2.11905 40.4889 3.20833 40.4889 4.73921C40.4889 6.4075 41.5879 7.53601 43.3347 7.53601C43.8254 7.53601 44.6693 7.33972 44.9833 7.1435L45.1502 6.05422L44.9833 6.00513C44.8361 6.78036 44.2179 7.2907 43.4819 7.2907C42.3337 7.2907 41.2543 6.21121 41.2543 4.70977C41.2543 2.91393 42.53 2.34478 43.3641 2.34478C44.1983 2.34478 44.8263 2.6882 44.9637 3.56161H45.1495L45.1502 3.5714V3.56161ZM25.7198 2.86484C25.5235 2.86484 25.3567 2.6882 25.3567 2.49198C25.3567 2.29569 25.5333 2.12884 25.7198 2.12884C25.9062 2.12884 26.0828 2.2859 26.0828 2.49198C26.0828 2.69806 25.9161 2.86484 25.7198 2.86484ZM20.185 3.04148C20.185 2.40935 19.868 2.41127 19.5509 2.41326C19.5333 2.41332 19.5157 2.41345 19.4981 2.41345V2.21716C19.7925 2.22702 20.0869 2.22702 20.3813 2.22702C20.5158 2.22702 20.6702 2.22522 20.8466 2.22311C21.0821 2.22042 21.3569 2.21716 21.6767 2.21716C23.6099 2.21716 24.6599 3.50273 24.6599 4.82753C24.6599 5.56353 24.2281 7.41825 21.5884 7.41825C21.3918 7.41825 21.203 7.41569 21.0194 7.41313C20.8454 7.41076 20.676 7.40846 20.5089 7.40846C20.1654 7.40846 19.8416 7.40846 19.5079 7.41825V7.22196L19.5425 7.21825C19.9704 7.1721 20.1758 7.1499 20.1948 6.65281V3.04148H20.185ZM20.921 6.53505C20.921 7.1042 21.3332 7.17294 21.6963 7.17294C23.3057 7.17294 23.8356 5.95604 23.8356 4.84718C23.8356 3.45364 22.9426 2.45268 21.5001 2.45268C21.2547 2.45268 21.1115 2.46548 20.9983 2.47559C20.9712 2.47796 20.9458 2.48026 20.921 2.48212V6.53505ZM25.0623 7.22196H24.9249H24.9052V7.41825C25.1801 7.3986 25.4548 7.3986 25.7198 7.3986C25.8535 7.3986 25.9872 7.40366 26.1196 7.40858C26.2496 7.41345 26.3785 7.41825 26.5049 7.41825V7.22196H26.3772C26.1712 7.22196 26.0044 7.22196 26.0044 6.97665V4.12097C26.0044 4.06209 25.9945 4.013 25.9553 4.013C25.9161 4.013 25.867 4.02286 25.8179 4.0523C25.7884 4.07188 25.3763 4.20929 25.023 4.31726V4.43502L25.0402 4.44385C25.312 4.58433 25.4156 4.63783 25.4156 4.95508V6.97665C25.4156 7.22196 25.2684 7.22196 25.0623 7.22196ZM26.7993 4.51348C27.1525 4.65089 27.231 4.72942 27.231 5.00417L27.2212 5.01396V6.98644C27.2212 7.23182 27.074 7.23182 26.8679 7.23182H26.7305V7.42804C26.9955 7.40846 27.2604 7.40846 27.5353 7.40846C27.6739 7.40846 27.8075 7.41345 27.9399 7.41838C28.0699 7.42324 28.1989 7.42804 28.3301 7.42804V7.23182H28.1927C27.9867 7.23182 27.8198 7.23182 27.8198 6.98644V4.77844C28.0652 4.62145 28.4479 4.42516 28.6834 4.42516C29.1152 4.42516 29.3703 4.6411 29.3703 5.06305V6.98644C29.3703 7.23182 29.2231 7.23182 29.0171 7.23182H28.8796V7.42804C29.1446 7.40846 29.4096 7.40846 29.6844 7.40846C29.823 7.40846 29.9566 7.41345 30.0891 7.41838C30.2191 7.42324 30.348 7.42804 30.4793 7.42804V7.23182H30.3419C30.1358 7.23182 29.9689 7.23182 29.9689 6.98644V5.06305C29.9689 4.48404 29.753 4.02286 29.1152 4.02286C28.6147 4.02286 28.2418 4.27796 27.8198 4.58222V4.10132C27.8198 4.04244 27.8002 4.02286 27.7806 4.02286C27.4595 4.15662 27.179 4.24986 26.8875 4.34676L26.7993 4.37614V4.51348ZM31.0484 5.35745C31.0288 5.42612 31.0288 5.53409 31.0484 5.78926C31.0876 6.49582 31.5489 7.07476 32.1475 7.07476C32.5596 7.07476 32.8835 6.8491 33.1583 6.57428L33.2662 6.68225C32.9228 7.13364 32.5008 7.52622 31.8825 7.52622C30.6951 7.52622 30.4596 6.37806 30.4596 5.90702C30.4596 4.44481 31.4409 4.013 31.9708 4.013C32.5793 4.013 33.227 4.39572 33.2368 5.18081V5.31822L33.1681 5.36724H31.0681L31.0484 5.35745ZM32.5793 4.9355C32.5793 5.02382 32.5596 5.12193 32.3732 5.12193H31.0778C31.1662 4.58222 31.4802 4.24852 31.9316 4.24852C32.3438 4.24852 32.5793 4.55278 32.5793 4.9355ZM33.3938 7.22196H33.5999C33.806 7.22196 33.9532 7.22196 33.9532 6.97665V4.88641C33.9532 4.6994 33.7799 4.63617 33.6496 4.58855C33.6158 4.5762 33.5849 4.56487 33.5606 4.55278V4.44481C33.848 4.32167 34.0656 4.21191 34.2177 4.13524C34.3564 4.06529 34.4405 4.02286 34.4732 4.02286C34.5125 4.02286 34.542 4.04244 34.542 4.12097V4.7883H34.5616C34.7481 4.4939 35.062 4.02286 35.5135 4.02286C35.6999 4.02286 35.9355 4.15041 35.9355 4.41537C35.9355 4.61166 35.798 4.79809 35.5822 4.79809C35.4668 4.79809 35.4079 4.75566 35.3479 4.71246C35.2854 4.6674 35.2217 4.62145 35.0915 4.62145C34.9639 4.62145 34.542 4.7883 34.542 5.23969V6.98644C34.542 7.23182 34.6892 7.23182 34.8953 7.23182H35.3172V7.42804C35.0972 7.42804 34.9051 7.42247 34.726 7.41729C34.5697 7.41268 34.4234 7.40846 34.277 7.40846C33.963 7.40846 33.6588 7.40846 33.3938 7.42804V7.23182V7.22196ZM37.2112 7.2907C36.6617 7.2907 36.3673 6.86868 36.2691 6.37806L36.1317 6.41729L36.2102 7.27105C36.4752 7.41825 36.8284 7.52622 37.1228 7.52622C38.0159 7.52622 38.4084 7.00609 38.4084 6.5154C38.4084 5.8827 37.9099 5.66926 37.4484 5.47175C37.051 5.30164 36.6812 5.14337 36.6812 4.73921C36.6812 4.41537 36.9659 4.24852 37.2603 4.24852C37.7411 4.24852 37.9963 4.51348 38.0748 4.98452H38.2514L38.2023 4.22894C37.9079 4.08174 37.5841 4.013 37.3486 4.013C36.5243 4.013 36.1906 4.54292 36.1906 4.96494C36.1906 5.60897 36.662 5.8242 37.0977 6.02311C37.4718 6.19393 37.8196 6.35271 37.8196 6.76078C37.8196 7.02574 37.6528 7.2907 37.2112 7.2907ZM50.2041 7.00609C50.2041 7.1435 50.2825 7.1435 50.4101 7.1435H50.7045V7.30049C50.3807 7.32993 49.7723 7.48692 49.6251 7.52622L49.5858 7.50657V6.90798C49.1344 7.27105 48.7909 7.53601 48.261 7.53601C47.8587 7.53601 47.4367 7.27105 47.4367 6.65281V4.749C47.4367 4.55278 47.4073 4.36628 46.9852 4.33684V4.1995C47.15 4.1995 47.4437 4.18049 47.6659 4.16615C47.8011 4.15745 47.9099 4.15041 47.947 4.15041C48.0255 4.15041 48.0255 4.1995 48.0255 4.36628V6.28974C48.0255 6.5154 48.0255 7.15329 48.6732 7.15329C48.9283 7.15329 49.262 6.957 49.576 6.7019V4.69998C49.576 4.56974 49.2995 4.49332 49.0455 4.42305C49.0124 4.4139 48.9797 4.40481 48.9479 4.39572V4.25838C49.3616 4.22791 49.6811 4.19374 49.8828 4.17217C50.0064 4.15892 50.0859 4.15041 50.1157 4.15041C50.1746 4.15041 50.1746 4.1995 50.1746 4.28782V7.03553L50.2041 7.00609ZM52.7948 4.013C52.3826 4.013 51.9803 4.29761 51.6859 4.55278L51.6761 4.56257V1.8443C51.6761 1.78542 51.6662 1.73633 51.6172 1.73633C51.5877 1.73633 51.5289 1.76577 51.4503 1.81486C51.2933 1.90318 50.9793 2.04052 50.6849 2.1387V2.25646L50.7022 2.26119C50.9739 2.33594 51.0775 2.36442 51.0775 2.8354V6.02478C51.0775 6.47617 51.0382 6.90798 50.9695 7.34958L51.1265 7.42804L51.3522 7.26126C51.376 7.27194 51.4013 7.28398 51.4283 7.29684L51.4289 7.29716C51.6243 7.39022 51.9102 7.52622 52.3924 7.52622C53.462 7.52622 54.1785 6.54484 54.1785 5.57332C54.1785 4.76865 53.6583 4.013 52.7948 4.013ZM51.6859 6.57428C51.6859 6.85889 51.9508 7.32993 52.4513 7.32993C53.2462 7.32993 53.5897 6.54484 53.5897 5.88737C53.5897 5.0827 52.9812 4.41537 52.3924 4.41537C52.1177 4.41537 51.8821 4.59201 51.6859 4.76865V6.57428ZM19.5472 11.7459H19.4883V11.8637C19.5625 11.8637 19.6562 11.8593 19.7553 11.8547C19.8661 11.8495 19.9833 11.844 20.0869 11.844C20.1851 11.844 20.2954 11.849 20.4058 11.8539C20.5162 11.8588 20.6267 11.8637 20.7248 11.8637V11.7459H20.6659C20.5187 11.7459 20.3617 11.7263 20.3617 11.5104V9.39073C20.3617 9.17486 20.5187 9.15521 20.6659 9.15521H20.7248V9.03745C20.6267 9.03745 20.5162 9.04238 20.4058 9.04724C20.2954 9.05217 20.1851 9.0571 20.0869 9.0571C19.9833 9.0571 19.8661 9.05159 19.7553 9.04647C19.6562 9.0418 19.5625 9.03745 19.4883 9.03745V9.15521H19.5472C19.6944 9.15521 19.8514 9.17486 19.8514 9.39073V11.5104C19.8514 11.7263 19.6944 11.7459 19.5472 11.7459ZM23.5118 11.0688V9.53793C23.5118 9.2043 23.2762 9.15521 23.1585 9.15521H23.0702V9.03745C23.1634 9.03745 23.2591 9.04238 23.3548 9.04724C23.4505 9.05217 23.5461 9.0571 23.6393 9.0571C23.7228 9.0571 23.8062 9.05217 23.8896 9.04724C23.973 9.04238 24.0564 9.03745 24.1398 9.03745V9.15521H24.0809C23.9141 9.15521 23.7178 9.18465 23.7178 9.66548V11.5104C23.7178 11.6478 23.7178 11.795 23.7375 11.9226H23.5804L21.4902 9.59681V11.2651C21.4902 11.6184 21.5589 11.7361 21.8729 11.7361H21.9417V11.8539C21.8521 11.8539 21.7625 11.8488 21.6742 11.8438C21.5884 11.839 21.5038 11.8342 21.4215 11.8342C21.3394 11.8342 21.2476 11.839 21.1545 11.8438C21.0588 11.8488 20.9616 11.8539 20.872 11.8539V11.7361H20.9308C21.2155 11.7361 21.294 11.5496 21.294 11.2258V9.51828C21.294 9.29262 21.1075 9.15521 20.921 9.15521H20.872V9.03745C20.9505 9.03745 21.029 9.04238 21.1075 9.04724C21.186 9.05217 21.2645 9.0571 21.343 9.0571C21.4007 9.0571 21.4585 9.05236 21.5173 9.04756C21.5785 9.04257 21.641 9.03745 21.7061 9.03745L23.5118 11.0688ZM24.3872 9.60622C24.4443 9.31066 24.4573 9.24353 24.758 9.24353V9.23374H25.4254V11.4024C25.4254 11.7263 25.3174 11.7459 25.0917 11.7459H25.0132V11.8637C25.083 11.8637 25.178 11.8598 25.2835 11.8555C25.4154 11.8501 25.5639 11.844 25.7001 11.844C25.8167 11.844 25.9532 11.8498 26.0789 11.855C26.1861 11.8595 26.2854 11.8637 26.3577 11.8637V11.7459H26.2791C26.0828 11.7459 25.9455 11.7165 25.9455 11.4024V9.24353H26.6128C26.8876 9.24353 26.917 9.48884 26.917 9.63604L27.0348 9.58702V9.26318C27.0446 9.20916 27.0519 9.15521 27.0593 9.10126C27.0667 9.04724 27.074 8.99329 27.0838 8.93934L26.9857 8.91969C26.9857 9.04724 26.8777 9.04724 26.7698 9.04724H24.6796C24.5716 9.04724 24.4636 9.04724 24.4342 8.92948H24.3361C24.3361 9.04724 24.3361 9.15521 24.3164 9.27297C24.3079 9.37588 24.2918 9.4713 24.2748 9.57236L24.2674 9.61646H24.3852L24.3872 9.60622ZM27.2212 11.7459H27.2703C27.4175 11.7459 27.5745 11.7263 27.5745 11.5104V9.39073C27.5745 9.17486 27.4175 9.15521 27.2703 9.15521H27.2114V9.03745C27.3238 9.03745 27.4732 9.04154 27.6352 9.04602C27.8268 9.05134 28.0361 9.0571 28.2222 9.0571C28.4035 9.0571 28.6067 9.05159 28.7985 9.04647C28.9701 9.0418 29.1327 9.03745 29.2624 9.03745V9.65569L29.1446 9.68513C29.125 9.42017 29.0759 9.21409 28.654 9.21409H28.0946V10.2739H28.5754C28.8208 10.2739 28.8699 10.1365 28.8993 9.92065H29.0171C29.0171 9.99911 29.0146 10.0776 29.0122 10.1561C29.0098 10.2346 29.0073 10.3132 29.0073 10.3917C29.0073 10.5487 29.0073 10.6959 29.0171 10.8529L28.8993 10.8725C28.8796 10.6272 28.8601 10.4702 28.5852 10.4702H28.0946V11.4123C28.0946 11.6773 28.3301 11.6773 28.5852 11.6773C29.0759 11.6773 29.2918 11.6478 29.4096 11.1866L29.5273 11.216C29.4783 11.4319 29.4292 11.6478 29.39 11.8637C29.2679 11.8637 29.1042 11.8595 28.9276 11.855C28.7209 11.8498 28.4965 11.844 28.3007 11.844C28.0977 11.844 27.8549 11.8502 27.6407 11.8556C27.4718 11.8599 27.3207 11.8637 27.2212 11.8637V11.7459ZM29.7138 9.165H29.7825C29.9003 9.165 30.0671 9.17486 30.0671 9.46926L30.0572 9.47905V11.5398C30.0572 11.687 29.9199 11.7557 29.7727 11.7557H29.704V11.8735C29.8083 11.8735 29.9075 11.8685 30.0056 11.8635C30.1013 11.8587 30.1959 11.8539 30.2928 11.8539C30.4044 11.8539 30.5185 11.8587 30.6338 11.8636C30.7515 11.8685 30.8706 11.8735 30.9895 11.8735V11.7557H30.9209C30.7344 11.7557 30.5872 11.7459 30.5872 11.4319V10.5683H30.8521C31.1171 11.0394 31.382 11.4712 31.6961 11.8833C31.7599 11.8833 31.8236 11.8784 31.8875 11.8735C31.9513 11.8686 32.015 11.8637 32.0788 11.8637C32.1475 11.8637 32.2137 11.8686 32.28 11.8735C32.3462 11.8784 32.4125 11.8833 32.4812 11.8833V11.7656C32.2849 11.7361 32.2064 11.687 32.0886 11.5202L31.3919 10.48C31.7157 10.3525 31.9611 10.1267 31.9611 9.76366C31.9611 9.18465 31.5097 9.04724 30.9993 9.04724C30.8949 9.04724 30.795 9.05185 30.6919 9.05658C30.582 9.06164 30.4684 9.06689 30.3419 9.06689C30.1993 9.06689 30.0535 9.0603 29.9312 9.05473C29.8431 9.0507 29.7673 9.04724 29.7138 9.04724V9.165ZM30.5872 10.4113H30.597V10.4211L30.5872 10.4113ZM30.597 10.4113V9.21409C30.646 9.2043 30.7049 9.19444 30.8227 9.19444C31.176 9.19444 31.4115 9.42017 31.4115 9.78324C31.4115 10.2543 31.1858 10.4113 30.7835 10.4113H30.597ZM35.2387 9.53793V11.0688L33.4331 9.03745C33.368 9.03745 33.3055 9.04257 33.2443 9.04756C33.1854 9.05236 33.1276 9.0571 33.07 9.0571C32.9915 9.0571 32.9129 9.05217 32.8345 9.04724C32.7559 9.04238 32.6774 9.03745 32.5989 9.03745V9.15521H32.648C32.8345 9.15521 33.0209 9.29262 33.0209 9.51828V11.2258C33.0209 11.5496 32.9424 11.7361 32.6578 11.7361H32.5989V11.8539C32.686 11.8539 32.7756 11.8491 32.8663 11.8443C32.9595 11.8393 33.054 11.8342 33.1484 11.8342C33.2307 11.8342 33.3153 11.839 33.4011 11.8438C33.4894 11.8488 33.579 11.8539 33.6686 11.8539V11.7361H33.5999C33.2859 11.7361 33.2172 11.6184 33.2172 11.2651V9.59681L35.3074 11.9226H35.4644C35.4448 11.795 35.4448 11.6478 35.4448 11.5104V9.66548C35.4448 9.18465 35.6411 9.15521 35.8079 9.15521H35.8668V9.03745C35.7833 9.03745 35.6999 9.04238 35.6165 9.04724C35.5331 9.05217 35.4497 9.0571 35.3663 9.0571C35.2669 9.0571 35.17 9.05204 35.0744 9.04705C34.9811 9.04225 34.8891 9.03745 34.7971 9.03745V9.15521H34.8854C35.0032 9.15521 35.2387 9.2043 35.2387 9.53793ZM36.4814 11.4194C36.4563 11.4938 36.4359 11.5544 36.4359 11.5987C36.4359 11.7165 36.6028 11.7361 36.7401 11.7361H36.7892V11.8539C36.7058 11.8539 36.6249 11.849 36.5439 11.844C36.4629 11.8392 36.382 11.8342 36.2985 11.8342C36.1513 11.8342 36.0041 11.8342 35.8569 11.8539V11.7361H35.8864C36.0434 11.7361 36.1808 11.6478 36.2396 11.4712L36.8873 9.61646C36.8967 9.5883 36.9072 9.55802 36.9181 9.52641C36.9643 9.39265 37.0187 9.23502 37.0345 9.11598C37.1621 9.07668 37.3289 8.98836 37.4074 8.93934H37.4369C37.4467 8.93934 37.4565 8.93934 37.4663 8.94913L37.4691 8.95783L37.4721 8.96711C37.4803 8.99335 37.4898 9.0235 37.5056 9.04724L38.2514 11.1669C38.2677 11.2127 38.2841 11.2607 38.3004 11.3087C38.3331 11.4046 38.3659 11.5006 38.3986 11.5791C38.4476 11.6968 38.536 11.7361 38.6636 11.7361H38.6832V11.8539C38.5912 11.8539 38.5015 11.8491 38.4107 11.8442C38.3176 11.8393 38.2232 11.8342 38.1238 11.8342C37.9276 11.8342 37.7215 11.8342 37.5154 11.8539V11.7361H37.5644C37.6528 11.7361 37.8196 11.7165 37.8196 11.6184C37.8196 11.5839 37.8002 11.5202 37.775 11.4377C37.7644 11.4029 37.7527 11.3647 37.7411 11.324L37.5841 10.8529H36.6617L36.534 11.2749L36.5243 11.2847C36.5104 11.3333 36.4951 11.3786 36.4814 11.4194ZM36.7401 10.637L37.1131 9.48884H37.1228L37.4958 10.637H36.7401ZM38.8598 9.23374C38.5612 9.23374 38.5463 9.29991 38.4809 9.59015L38.4771 9.6066H38.3593L38.3667 9.56257C38.3838 9.46158 38.3998 9.36609 38.4084 9.26318C38.4281 9.14542 38.4281 9.03745 38.4281 8.91969H38.5262C38.5556 9.03745 38.6636 9.03745 38.7715 9.03745H40.8716C40.9795 9.03745 41.0777 9.03745 41.0875 8.9099L41.1856 8.92948C41.166 9.03745 41.1561 9.14542 41.1463 9.25332V9.57716L41.0286 9.62625C41.0286 9.47905 40.9991 9.23374 40.7244 9.23374H40.057V11.3926C40.057 11.7067 40.2043 11.7361 40.3907 11.7361H40.4692V11.8539C40.397 11.8539 40.2977 11.8497 40.1906 11.8453C40.0649 11.8399 39.9282 11.8342 39.8117 11.8342C39.6754 11.8342 39.527 11.8403 39.3951 11.8457C39.2896 11.85 39.1946 11.8539 39.1248 11.8539V11.7361H39.2033C39.429 11.7361 39.5369 11.7165 39.5369 11.3926V9.22388H38.8697L38.8598 9.23374ZM41.3916 11.7361H41.3328V11.8539C41.4069 11.8539 41.5007 11.8495 41.5998 11.8449C41.7106 11.8398 41.8278 11.8342 41.9314 11.8342C42.0295 11.8342 42.1399 11.8392 42.2503 11.844C42.3607 11.849 42.4711 11.8539 42.5692 11.8539V11.7361H42.5104C42.3632 11.7361 42.2062 11.7165 42.2062 11.5006V9.38094C42.2062 9.165 42.3632 9.14542 42.5104 9.14542H42.5692V9.02766C42.4772 9.02766 42.3685 9.03239 42.2583 9.03726C42.1453 9.04225 42.0308 9.04724 41.9314 9.04724C41.8278 9.04724 41.7106 9.0418 41.5998 9.03662C41.5007 9.03201 41.4069 9.02766 41.3328 9.02766V9.14542H41.3916C41.5388 9.14542 41.6959 9.165 41.6959 9.38094V11.5006C41.6959 11.7165 41.5388 11.7361 41.3916 11.7361ZM44.1936 8.96878C45.0548 8.97089 45.7488 9.51022 45.7488 10.3622C45.7488 11.2945 45.0815 11.9128 44.2179 11.9128C43.3543 11.9128 42.6969 11.3338 42.6969 10.4604C42.6969 9.58862 43.3519 8.97108 44.1936 8.96878ZM44.1936 8.96878H44.1884H44.1983H44.1936ZM45.1698 10.4506C45.1698 11.0394 45.0324 11.7361 44.2473 11.7361V11.7459C43.5899 11.7459 43.2562 11.0492 43.2562 10.323C43.2562 9.77345 43.4721 9.14542 44.1787 9.14542C44.846 9.14542 45.1698 9.86177 45.1698 10.4506ZM48.4769 11.059V9.52814C48.4769 9.19444 48.2414 9.14542 48.1236 9.14542H48.0353V9.02766C48.1273 9.02766 48.2194 9.03239 48.3126 9.03726C48.4082 9.04225 48.5051 9.04724 48.6044 9.04724C48.6879 9.04724 48.7713 9.04238 48.8547 9.03745C48.9381 9.03252 49.0215 9.02766 49.1049 9.02766V9.14542H49.046C48.8793 9.14542 48.683 9.17486 48.683 9.65569V11.5006C48.683 11.638 48.683 11.7852 48.7026 11.9128H48.5456L46.4553 9.58702V11.2552C46.4553 11.6085 46.5241 11.7263 46.838 11.7263H46.9068V11.844C46.8172 11.844 46.7276 11.839 46.6393 11.8341C46.5535 11.8292 46.4689 11.8245 46.3866 11.8245C46.3045 11.8245 46.2127 11.8292 46.1196 11.8341C46.0239 11.839 45.9267 11.844 45.8371 11.844V11.7263H45.896C46.1806 11.7263 46.2591 11.5398 46.2591 11.216V9.50849C46.2591 9.28276 46.0726 9.14542 45.8862 9.14542H45.8371V9.02766C45.9156 9.02766 45.9941 9.03252 46.0726 9.03745C46.1511 9.04238 46.2297 9.04724 46.3081 9.04724C46.3659 9.04724 46.4236 9.04257 46.4824 9.03777C46.5436 9.03278 46.6062 9.02766 46.6713 9.02766L48.4769 11.059ZM49.7196 11.4096C49.7333 11.3687 49.7485 11.3237 49.7625 11.2749L49.7723 11.2651L49.8998 10.8431H50.8223L50.9793 11.3141C50.9909 11.3549 51.0026 11.3931 51.0132 11.4279C51.0384 11.5104 51.0578 11.574 51.0578 11.6085C51.0578 11.7067 50.891 11.7263 50.8027 11.7263H50.7536V11.844C50.9596 11.8245 51.1657 11.8245 51.362 11.8245C51.4614 11.8245 51.5557 11.8294 51.6489 11.8344C51.7397 11.8393 51.8293 11.844 51.9214 11.844V11.7263H51.8919C51.7644 11.7263 51.6761 11.687 51.627 11.5693C51.5943 11.4908 51.5616 11.3948 51.5289 11.2989C51.5125 11.251 51.4962 11.2029 51.4798 11.1571L50.734 9.03745C50.7291 9.02273 50.7217 9.00558 50.7143 8.98836C50.707 8.97121 50.6996 8.95406 50.6947 8.93934C50.6849 8.92948 50.6751 8.92948 50.6652 8.92948H50.6358C50.5573 8.97857 50.3905 9.06689 50.2629 9.10612C50.2471 9.22522 50.1927 9.38279 50.1465 9.51655C50.1356 9.54817 50.1251 9.5785 50.1157 9.6066L49.4681 11.4613C49.4092 11.638 49.2718 11.7263 49.1148 11.7263H49.0951V11.844C49.2423 11.8245 49.3895 11.8245 49.5367 11.8245C49.614 11.8245 49.6937 11.8292 49.7747 11.8341C49.8581 11.839 49.9427 11.844 50.0274 11.844V11.7263H49.9783C49.8409 11.7263 49.6741 11.7067 49.6741 11.5889C49.6741 11.5446 49.6946 11.484 49.7196 11.4096ZM50.3513 9.47905L49.9685 10.6272H50.7241L50.3513 9.47905ZM53.1873 11.687C53.0499 11.6674 52.942 11.6282 52.942 11.4613H52.9616V9.37108C52.9616 9.15521 53.0793 9.15521 53.2364 9.15521H53.3345V9.03745C53.2327 9.03745 53.1332 9.04225 53.0326 9.04711C52.9296 9.05204 52.8254 9.0571 52.7162 9.0571C52.6083 9.0571 52.5028 9.05217 52.3973 9.04724C52.2918 9.04238 52.1863 9.03745 52.0784 9.03745V9.15521H52.1372C52.2844 9.15521 52.4415 9.17486 52.4415 9.39073V11.4712C52.4415 11.7263 52.2844 11.7459 52.1372 11.7459H52.0784V11.8637C52.255 11.8637 52.4341 11.8588 52.6132 11.8539C52.7923 11.849 52.9714 11.844 53.1481 11.844C53.3247 11.844 53.5038 11.849 53.6828 11.8539C53.862 11.8588 54.0411 11.8637 54.2177 11.8637C54.2668 11.638 54.3158 11.4123 54.3649 11.1768H54.2471C54.2424 11.191 54.2377 11.206 54.2327 11.2214C54.2072 11.3022 54.1772 11.3971 54.1196 11.4712C54.0411 11.5693 53.8939 11.6674 53.727 11.687C53.5406 11.6968 53.3541 11.6968 53.1873 11.687Z" fill="#1A1918"/>
</svg>
