<svg width="51" height="9" viewBox="0 0 51 9" fill="none" xmlns="http://www.w3.org/2000/svg">
<path fill-rule="evenodd" clip-rule="evenodd" d="M0 0.241455H2.30168C4.85464 0.241455 6.63372 1.97622 6.64374 4.47861C6.64374 5.71923 6.10098 6.9178 5.17629 7.71692C4.40235 8.3793 3.51784 8.6842 2.30168 8.6842H0V0.241455ZM1.99011 7.26481C3.02536 7.26481 3.64856 7.05454 4.15106 6.59188V6.60243C4.69382 6.09773 5.01547 5.27766 5.01547 4.46807C5.01547 3.65847 4.69382 2.86997 4.15106 2.36527C3.61838 1.8816 3.00526 1.69234 1.99011 1.69234H1.56799V7.26481H1.99011Z" fill="#231F20"/>
<path d="M8.93516 0.241455H7.36719V8.6842H8.93516V0.241455Z" fill="#231F20"/>
<path d="M12.7841 3.47998C11.8494 3.11202 11.568 2.87018 11.568 2.41807C11.568 1.88188 12.0705 1.48235 12.7439 1.48235C13.2163 1.48235 13.6084 1.68208 14.0104 2.17623L14.8345 1.05126C14.1611 0.441465 13.3571 0.115479 12.4525 0.115479C11.0252 0.115479 9.92962 1.15637 9.92962 2.54426C9.92962 3.71127 10.4423 4.31059 11.9097 4.85733C12.5228 5.08862 12.8344 5.24638 12.9952 5.33046C13.3068 5.54073 13.4676 5.85617 13.4676 6.20311C13.4676 6.89706 12.955 7.40169 12.2515 7.40169C11.5077 7.40169 10.9046 7.00216 10.5327 6.27672L9.51758 7.30706C10.2413 8.4321 11.1157 8.91571 12.3017 8.91571C13.9299 8.91571 15.0858 7.78019 15.0858 6.14005C15.116 4.77325 14.5732 4.16338 12.7841 3.4695V3.47998Z" fill="#231F20"/>
<path d="M15.5977 4.48012C15.5977 6.97189 17.4571 8.88544 19.8493 8.88544C20.5227 8.88544 21.1157 8.74877 21.8193 8.39129V6.45672C21.1861 7.11911 20.6332 7.38196 19.9296 7.38196C18.3416 7.38196 17.2158 6.18339 17.2158 4.46957C17.2158 2.83991 18.3717 1.56773 19.8593 1.56773C20.6031 1.56773 21.176 1.84106 21.8293 2.52447V0.579426C21.1358 0.211398 20.5629 0.0537109 19.8894 0.0537109C17.5275 0.0537109 15.6077 2.01984 15.6077 4.48012H15.5977Z" fill="#231F20"/>
<path d="M34.3228 5.9295L32.1719 0.241455H30.4531L33.8705 8.90495H34.7248L38.2025 0.241455H36.4938L34.3228 5.9295Z" fill="#231F20"/>
<path d="M38.916 8.6842H43.3786V7.26481H40.4839V4.99378H43.2782V3.56385H40.4839V1.69234H43.3786V0.241455H38.916V8.6842Z" fill="#231F20"/>
<path fill-rule="evenodd" clip-rule="evenodd" d="M46.7576 0.253662C48.5768 0.253662 49.6222 1.16836 49.6222 2.7455H49.6121C49.6121 4.03871 48.9488 4.8798 47.7627 5.14265L50.3057 8.70695H48.3657L46.1947 5.31089H45.9937V8.70695H44.4258V0.253662H46.7576ZM46.0038 4.14381H46.4561C47.4612 4.14381 47.9939 3.68122 47.9939 2.84013C47.9939 2.00952 47.4712 1.57843 46.4863 1.57843H46.0038V4.14381Z" fill="#231F20"/>
<path d="M26.6554 9C29.0312 9 30.9572 6.98528 30.9572 4.5C30.9572 2.01472 29.0312 0 26.6554 0C24.2795 0 22.3535 2.01472 22.3535 4.5C22.3535 6.98528 24.2795 9 26.6554 9Z" fill="url(#paint0_linear_935_17594)"/>
<path opacity="0.65" d="M26.6554 9C29.0312 9 30.9572 6.98528 30.9572 4.5C30.9572 2.01472 29.0312 0 26.6554 0C24.2795 0 22.3535 2.01472 22.3535 4.5C22.3535 6.98528 24.2795 9 26.6554 9Z" fill="url(#paint1_linear_935_17594)"/>
<path fill-rule="evenodd" clip-rule="evenodd" d="M50.3562 0.336182C50.517 0.336182 50.6175 0.409787 50.6175 0.567474H50.6276C50.6276 0.672645 50.5672 0.756726 50.4768 0.76727L50.7079 1.07217H50.5069L50.3059 0.777747V1.07217H50.125V0.336182H50.3562ZM50.2958 0.672644H50.326C50.4165 0.672644 50.4567 0.64108 50.4567 0.567474C50.4567 0.504413 50.4165 0.472849 50.326 0.472849H50.2958V0.672644Z" fill="#231F20"/>
<path fill-rule="evenodd" clip-rule="evenodd" d="M49.7734 0.705327C49.7734 0.35832 50.0449 0.0639648 50.3866 0.0639648C50.7183 0.0639648 50.9997 0.35832 50.9997 0.705327C50.9997 1.05227 50.7183 1.34662 50.3866 1.34662C50.0549 1.34662 49.7734 1.05227 49.7734 0.705327ZM49.8841 0.705327C49.8841 1.01023 50.1253 1.24152 50.3866 1.24152C50.6479 1.24152 50.869 0.999682 50.869 0.705327C50.869 0.410905 50.6479 0.169068 50.3866 0.169068C50.1052 0.169068 49.8841 0.400361 49.8841 0.705327Z" fill="#231F20"/>
<defs>
<linearGradient id="paint0_linear_935_17594" x1="31.1733" y1="6.55548" x2="28.0148" y2="1.81646" gradientUnits="userSpaceOnUse">
<stop stop-color="#F79E20"/>
<stop offset="0.25" stop-color="#F69920"/>
<stop offset="0.53" stop-color="#F58C20"/>
<stop offset="0.62" stop-color="#F48620"/>
<stop offset="0.72" stop-color="#F38020"/>
<stop offset="1" stop-color="#F27521"/>
</linearGradient>
<linearGradient id="paint1_linear_935_17594" x1="32.6257" y1="5.75643" x2="27.9551" y2="-2.94651" gradientUnits="userSpaceOnUse">
<stop stop-color="#F48620"/>
<stop offset="0.36" stop-color="#E06F27"/>
<stop offset="0.7" stop-color="#D3602C"/>
<stop offset="0.98" stop-color="#CF5B2E"/>
</linearGradient>
</defs>
</svg>
