<svg width="32" height="24" viewBox="0 0 32 24" fill="none" xmlns="http://www.w3.org/2000/svg">
<path d="M31.1619 19.1619C31.1619 21.8286 28.9905 24 26.3238 24H0V4.83809C0 2.17143 2.17143 0 4.8381 0H31.1619V19.1619Z" fill="white"/>
<path d="M22.5918 14.2544H24.5918C24.6489 14.2544 24.7823 14.2353 24.8394 14.2353C25.2204 14.1591 25.5442 13.8163 25.5442 13.3401C25.5442 12.8829 25.2204 12.5401 24.8394 12.4448C24.7823 12.4258 24.668 12.4258 24.5918 12.4258H22.5918V14.2544Z" fill="url(#paint0_linear_935_21202)"/>
<path d="M24.3627 1.62305C22.4579 1.62305 20.896 3.1659 20.896 5.08971V8.68971H25.7912C25.9055 8.68971 26.0389 8.68971 26.1341 8.70876C27.2389 8.7659 28.0579 9.33733 28.0579 10.3278C28.0579 11.1088 27.5055 11.7754 26.477 11.9088V11.9469C27.6008 12.023 28.4579 12.6516 28.4579 13.623C28.4579 14.6707 27.5055 15.3564 26.2484 15.3564H20.877V22.404H25.9627C27.8674 22.404 29.4293 20.8611 29.4293 18.9373V1.62305H24.3627Z" fill="url(#paint1_linear_935_21202)"/>
<path d="M25.2966 10.5568C25.2966 10.0997 24.9727 9.79494 24.5918 9.7378C24.5537 9.7378 24.4585 9.71875 24.4013 9.71875H22.5918V11.3949H24.4013C24.4585 11.3949 24.5727 11.3949 24.5918 11.3759C24.9727 11.3188 25.2966 11.014 25.2966 10.5568Z" fill="url(#paint2_linear_935_21202)"/>
<path d="M5.1986 1.61719C3.29384 1.61719 1.73194 3.16004 1.73194 5.08385V13.6362C2.70337 14.1124 3.71289 14.4172 4.72241 14.4172C5.92241 14.4172 6.57003 13.6934 6.57003 12.7029V8.66481H9.54146V12.6839C9.54146 14.2458 8.57003 15.5219 5.27479 15.5219C3.27479 15.5219 1.71289 15.0839 1.71289 15.0839V22.3791H6.7986C8.70337 22.3791 10.2653 20.8362 10.2653 18.9124V1.61719H5.1986Z" fill="url(#paint3_linear_935_21202)"/>
<path d="M14.7811 1.61719C12.8764 1.61719 11.3145 3.16004 11.3145 5.08385V9.61719C12.1906 8.87433 13.7145 8.39814 16.1716 8.51243C17.4859 8.56957 18.8954 8.93147 18.8954 8.93147V10.3981C18.1906 10.0362 17.3525 9.71243 16.2668 9.63623C14.4002 9.5029 13.2764 10.4172 13.2764 12.0172C13.2764 13.6362 14.4002 14.5505 16.2668 14.3981C17.3525 14.322 18.1906 13.9791 18.8954 13.6362V15.1029C18.8954 15.1029 17.5049 15.4648 16.1716 15.5219C13.7145 15.6362 12.1906 15.16 11.3145 14.4172V22.4172H16.4002C18.3049 22.4172 19.8668 20.8743 19.8668 18.9505V1.61719H14.7811Z" fill="url(#paint4_linear_935_21202)"/>
<defs>
<linearGradient id="paint0_linear_935_21202" x1="20.8928" y1="13.342" x2="29.4534" y2="13.342" gradientUnits="userSpaceOnUse">
<stop stop-color="#007940"/>
<stop offset="0.2285" stop-color="#00873F"/>
<stop offset="0.7433" stop-color="#40A737"/>
<stop offset="1" stop-color="#5CB531"/>
</linearGradient>
<linearGradient id="paint1_linear_935_21202" x1="20.8926" y1="12.0049" x2="29.4527" y2="12.0049" gradientUnits="userSpaceOnUse">
<stop stop-color="#007940"/>
<stop offset="0.2285" stop-color="#00873F"/>
<stop offset="0.7433" stop-color="#40A737"/>
<stop offset="1" stop-color="#5CB531"/>
</linearGradient>
<linearGradient id="paint2_linear_935_21202" x1="20.8928" y1="10.554" x2="29.4526" y2="10.554" gradientUnits="userSpaceOnUse">
<stop stop-color="#007940"/>
<stop offset="0.2285" stop-color="#00873F"/>
<stop offset="0.7433" stop-color="#40A737"/>
<stop offset="1" stop-color="#5CB531"/>
</linearGradient>
<linearGradient id="paint3_linear_935_21202" x1="1.72761" y1="11.999" x2="10.4198" y2="11.999" gradientUnits="userSpaceOnUse">
<stop stop-color="#1F286F"/>
<stop offset="0.4751" stop-color="#004E94"/>
<stop offset="0.8261" stop-color="#0066B1"/>
<stop offset="1" stop-color="#006FBC"/>
</linearGradient>
<linearGradient id="paint4_linear_935_21202" x1="11.2649" y1="11.999" x2="19.7068" y2="11.999" gradientUnits="userSpaceOnUse">
<stop stop-color="#6C2C2F"/>
<stop offset="0.1735" stop-color="#882730"/>
<stop offset="0.5731" stop-color="#BE1833"/>
<stop offset="0.8585" stop-color="#DC0436"/>
<stop offset="1" stop-color="#E60039"/>
</linearGradient>
</defs>
</svg>
