<svg width="32" height="20" viewBox="0 0 32 20" fill="none" xmlns="http://www.w3.org/2000/svg">
<path fill-rule="evenodd" clip-rule="evenodd" d="M11.6719 17.862H20.325V2.13818H11.6719V17.862Z" fill="#FF5F00"/>
<path fill-rule="evenodd" clip-rule="evenodd" d="M12.2228 9.99996C12.2228 6.80997 13.6999 3.96887 16 2.13805C14.3177 0.798886 12.1954 0 9.88841 0C4.42708 0 0 4.4772 0 9.99996C0 15.5227 4.42708 19.9999 9.88841 19.9999C12.1954 19.9999 14.3177 19.201 16 17.8619C13.6999 16.0308 12.2228 13.1899 12.2228 9.99996Z" fill="#EB001B"/>
<path fill-rule="evenodd" clip-rule="evenodd" d="M31.6912 16.1966V15.8085H31.5909L31.4758 16.0755L31.3605 15.8085H31.2602V16.1966H31.3308V15.9038L31.439 16.1563H31.5124L31.6206 15.9033V16.1966H31.6912ZM31.0564 16.1966V15.8747H31.1849V15.8091H30.858V15.8747H30.9863V16.1966H31.0564ZM32 9.99996C32 15.5227 27.5726 19.9999 22.1115 19.9999C19.8046 19.9999 17.682 19.201 16 17.8619C18.3001 16.031 19.7771 13.1899 19.7771 9.99996C19.7771 6.81025 18.3001 3.96915 16 2.13805C17.682 0.798885 19.8046 0 22.1115 0C27.5726 0 32 4.4772 32 9.99996Z" fill="#F79E1B"/>
</svg>
